<?xml version="1.0" standalone="no"?>
<!DOCTYPE svg PUBLIC "-//W3C//DTD SVG 20010904//EN"
 "http://www.w3.org/TR/2001/REC-SVG-20010904/DTD/svg10.dtd">
<svg version="1.0" xmlns="http://www.w3.org/2000/svg"
 width="1417.000000pt" height="473.000000pt" viewBox="0 0 1417.000000 473.000000"
 preserveAspectRatio="xMidYMid meet">

<g transform="translate(0.000000,473.000000) scale(0.100000,-0.100000)"
fill="#000000" stroke="none">
<path d="M2365 4463 c-413 -34 -737 -143 -1060 -358 -469 -311 -775 -786 -887
-1375 -29 -153 -37 -637 -14 -799 49 -330 165 -601 388 -902 199 -268 435
-469 718 -609 202 -101 374 -153 565 -170 137 -13 759 -12 870 0 298 35 631
186 895 406 137 114 308 303 379 417 16 26 43 47 94 73 99 50 146 84 219 158
93 93 160 215 203 368 13 47 15 106 13 360 -3 295 -4 304 -25 334 -47 65 -33
64 -646 64 l-555 0 -32 -26 c-63 -54 -64 -59 -70 -389 -5 -284 -7 -303 -29
-355 -38 -92 -92 -171 -166 -245 -82 -83 -160 -137 -266 -182 -78 -34 -254
-77 -277 -68 -9 3 -12 31 -10 112 l3 108 75 7 c137 12 255 83 336 201 69 103
74 137 74 522 0 299 2 344 16 356 34 28 49 74 54 172 l5 97 -107 0 -107 0 -3
248 c-3 219 -5 251 -21 275 -57 88 -187 88 -244 0 -16 -24 -18 -56 -21 -270
l-3 -243 25 0 c14 0 26 -5 26 -11 0 -18 -57 -114 -128 -219 -36 -52 -90 -131
-120 -174 -76 -112 -77 -106 15 -106 44 0 128 -3 186 -7 94 -5 107 -8 107 -24
0 -10 -92 -155 -204 -322 -112 -167 -231 -350 -265 -407 l-61 -104 0 -108 c0
-80 -3 -108 -12 -108 -26 0 -175 31 -223 46 -71 23 -205 95 -274 148 -144 111
-253 267 -313 446 -30 91 -32 103 -38 310 -7 242 -11 261 -80 306 -80 53 -199
14 -241 -80 -15 -34 -18 -73 -20 -236 l-2 -195 32 -95 c58 -171 155 -322 308
-476 108 -109 285 -231 425 -292 459 -201 1100 -144 1440 129 151 121 269 310
335 537 11 39 18 113 22 237 l6 180 323 3 c273 2 323 0 328 -12 10 -25 -32
-102 -71 -132 -38 -29 -39 -29 -224 -35 -102 -3 -186 -7 -187 -7 -1 -1 -4 -47
-7 -101 -27 -442 -289 -801 -712 -976 -165 -68 -289 -95 -490 -105 -299 -15
-507 8 -705 76 -67 23 -263 115 -315 147 -305 188 -569 514 -653 803 -55 188
-69 381 -33 460 24 53 65 93 102 101 16 3 31 9 34 12 2 4 9 56 15 116 23 228
94 438 210 622 56 88 68 102 200 233 154 154 298 248 502 329 202 79 496 105
753 66 401 -60 782 -334 994 -716 54 -97 126 -305 130 -376 1 -10 30 -13 110
-13 l109 0 -24 58 c-13 31 -24 64 -24 72 0 31 -73 237 -116 326 -71 151 -155
266 -293 404 -193 193 -380 308 -631 390 -173 57 -288 74 -505 74 -187 0 -287
-11 -415 -46 -291 -78 -518 -208 -725 -413 -127 -125 -209 -235 -289 -386 -60
-113 -126 -310 -146 -432 -14 -89 -53 -170 -104 -213 l-41 -35 -3 138 c-5 239
29 394 133 608 233 479 707 828 1265 932 134 25 513 25 655 0 122 -22 306 -82
435 -143 526 -249 908 -754 946 -1250 l7 -84 79 0 c231 0 283 143 174 475
-127 384 -414 756 -776 1006 -225 155 -524 279 -795 329 -156 29 -399 44 -530
33z"/>
<path d="M2033 3310 c-63 -38 -68 -58 -71 -327 l-3 -243 -115 0 -114 0 0 -85
c0 -97 13 -136 58 -180 l31 -30 1 -320 c0 -349 6 -411 47 -494 33 -69 132
-170 195 -199 75 -35 59 -49 164 145 24 46 72 129 107 185 75 122 167 283 167
292 0 3 -85 6 -190 6 -136 0 -190 3 -190 11 0 7 15 30 33 53 44 54 203 272
338 463 l108 153 -177 2 -177 3 -5 252 c-5 236 -6 253 -26 280 -11 15 -32 34
-45 40 -36 19 -100 16 -136 -7z"/>
<path d="M5406 2779 c-172 -25 -294 -142 -325 -313 -46 -247 60 -471 247 -525
92 -27 174 -33 262 -21 135 19 225 83 275 194 43 96 48 88 -70 124 -57 18
-108 32 -114 32 -5 0 -15 -17 -22 -37 -28 -87 -75 -123 -162 -123 -109 0 -159
65 -165 215 -5 104 8 161 44 205 36 42 74 60 129 60 68 0 133 -41 149 -96 l6
-21 113 25 c61 14 113 26 115 27 2 2 -10 30 -27 64 -57 113 -142 171 -276 191
-80 11 -97 11 -179 -1z"/>
<path d="M7270 2780 c-182 -28 -303 -139 -339 -308 -14 -66 -14 -192 0 -252
26 -113 110 -220 208 -264 123 -55 319 -55 442 0 68 31 151 112 179 176 47
109 52 299 10 410 -39 104 -140 194 -250 223 -70 18 -184 25 -250 15z m180
-211 c21 -12 48 -40 61 -63 21 -37 24 -53 24 -156 0 -130 -14 -174 -69 -213
-45 -32 -167 -32 -212 0 -54 39 -69 83 -69 208 0 147 23 200 105 237 34 15
122 8 160 -13z"/>
<path d="M8256 2779 c-172 -25 -294 -142 -325 -313 -46 -247 60 -471 247 -525
92 -27 174 -33 262 -21 135 19 225 83 275 194 43 96 48 88 -70 124 -57 18
-108 32 -114 32 -5 0 -15 -17 -22 -37 -28 -87 -75 -123 -162 -123 -109 0 -159
65 -165 215 -5 104 8 161 44 205 36 42 74 60 129 60 68 0 133 -41 149 -96 l6
-21 113 25 c61 14 113 26 115 27 2 2 -10 30 -27 64 -57 113 -142 171 -276 191
-80 11 -97 11 -179 -1z"/>
<path d="M12045 2779 c-214 -28 -340 -169 -352 -394 -6 -107 7 -182 48 -264
78 -155 253 -229 479 -202 120 15 197 44 298 113 l42 29 0 174 0 175 -205 0
-205 0 0 -90 0 -90 90 0 90 0 0 -38 c0 -36 -3 -40 -42 -57 -24 -9 -77 -19
-119 -22 -62 -4 -82 -2 -115 15 -77 39 -104 98 -103 226 1 153 55 227 172 234
76 5 130 -15 154 -55 l16 -29 121 19 c67 11 123 21 125 23 10 9 -33 95 -65
133 -51 59 -115 89 -221 101 -98 11 -122 11 -208 -1z"/>
<path d="M6040 2351 l0 -431 125 0 125 0 0 175 0 175 30 0 c63 0 82 -20 174
-189 l88 -161 144 0 144 0 -61 123 c-72 143 -125 219 -168 237 -40 16 -39 24
7 38 91 28 152 115 152 220 0 74 -19 124 -63 170 -55 57 -98 64 -414 69 l-283
5 0 -431z m474 238 c37 -29 37 -95 1 -129 -23 -22 -37 -25 -125 -28 l-100 -4
0 91 0 91 99 0 c84 0 102 -3 125 -21z"/>
<path d="M8880 2350 l0 -430 130 0 130 0 0 175 0 175 150 0 150 0 0 -175 0
-175 130 0 130 0 0 430 0 430 -130 0 -130 0 0 -150 0 -150 -150 0 -150 0 0
150 0 150 -130 0 -130 0 0 -430z"/>
<path d="M10117 2772 c-7 -9 -307 -810 -314 -834 -5 -17 6 -18 125 -18 l130 0
21 70 22 70 154 0 154 0 22 -70 21 -70 134 0 c74 0 134 2 134 3 0 2 -72 195
-159 428 l-159 424 -140 3 c-77 1 -143 -1 -145 -6z m192 -381 c23 -74 40 -136
37 -138 -2 -2 -44 -2 -93 -1 l-90 3 28 95 c16 52 36 119 45 149 11 37 19 50
24 40 4 -8 26 -74 49 -148z"/>
<path d="M10820 2351 l0 -431 125 0 125 0 0 175 0 175 30 0 c63 0 82 -20 174
-189 l88 -161 144 0 144 0 -61 123 c-72 143 -125 219 -168 237 -40 16 -39 24
7 38 91 28 152 115 152 220 0 74 -19 124 -63 170 -55 57 -98 64 -414 69 l-283
5 0 -431z m474 238 c37 -29 37 -95 1 -129 -23 -22 -37 -25 -125 -28 l-100 -4
0 91 0 91 99 0 c84 0 102 -3 125 -21z"/>
<path d="M12720 2350 l0 -430 360 0 360 0 0 100 0 100 -230 0 -230 0 0 80 0
80 205 0 205 0 0 90 0 90 -205 0 -205 0 0 60 0 60 220 0 220 0 0 100 0 100
-350 0 -350 0 0 -430z"/>
</g>
</svg>
