<?xml version="1.0" encoding="UTF-8" ?>
<!DOCTYPE svg PUBLIC "-//W3C//DTD SVG 1.1//EN" "http://www.w3.org/Graphics/SVG/1.1/DTD/svg11.dtd">
<svg width="672pt" height="319pt" viewBox="0 0 672 319" version="1.1" xmlns="http://www.w3.org/2000/svg">
<g id="#006bcdff">
<path fill="#006bcd" opacity="1.00" d=" M 0.00 0.00 L 471.00 0.00 C 470.96 26.32 471.08 52.64 470.95 78.97 C 467.31 79.06 463.68 79.06 460.05 78.97 C 459.87 56.33 460.13 33.69 459.95 11.05 C 310.32 10.97 160.68 10.97 11.05 11.05 C 10.97 110.02 10.96 208.98 11.05 307.95 C 160.68 308.03 310.32 308.03 459.95 307.95 C 460.12 284.98 459.88 262.01 460.05 239.04 C 463.68 238.94 467.31 238.94 470.95 239.04 C 471.08 265.69 470.96 292.34 471.00 319.00 L 0.00 319.00 L 0.00 0.00 Z" />
<path fill="#006bcd" opacity="1.00" d=" M 530.10 90.10 C 535.16 88.46 540.73 88.47 545.80 90.08 C 546.28 114.71 545.85 139.36 546.01 164.00 C 546.05 167.99 546.02 171.99 545.85 175.98 C 540.74 177.53 535.14 177.56 530.05 175.93 C 529.25 158.98 529.93 141.97 529.71 125.00 C 529.94 113.37 529.21 101.71 530.10 90.10 Z" />
<path fill="#006bcd" opacity="1.00" d=" M 48.91 119.91 C 55.78 114.54 65.16 114.28 73.42 115.57 C 76.52 116.34 80.32 116.89 82.25 119.70 C 83.22 123.14 82.87 126.81 82.01 130.24 C 76.35 128.77 71.02 125.50 64.96 126.23 C 61.59 125.95 58.29 128.65 58.26 132.11 C 57.97 134.79 60.51 136.47 62.58 137.54 C 68.79 140.60 76.10 141.81 81.21 146.80 C 86.76 151.81 87.25 160.61 84.19 167.08 C 81.12 173.64 73.85 176.98 66.98 177.76 C 59.38 178.56 51.00 178.04 44.61 173.42 C 41.39 170.14 42.68 165.01 43.15 160.93 C 49.90 162.01 55.75 167.11 62.96 165.72 C 67.62 166.16 72.68 160.23 68.59 156.40 C 62.76 151.65 54.50 151.24 48.71 146.30 C 40.56 140.02 40.88 126.17 48.91 119.91 Z" />
<path fill="#006bcd" opacity="1.00" d=" M 185.33 115.45 C 191.85 114.26 199.38 114.80 204.43 119.56 C 209.70 124.11 211.00 131.42 211.21 138.03 C 211.45 147.68 211.18 157.34 211.33 166.99 C 211.29 169.88 211.54 172.83 210.82 175.65 C 209.88 176.73 208.40 176.82 207.08 176.95 C 203.10 177.22 198.99 177.30 195.18 175.93 C 194.66 163.94 195.29 151.93 194.89 139.94 C 194.78 135.73 192.87 130.97 188.58 129.52 C 182.34 127.84 176.77 132.67 173.46 137.42 C 172.58 140.52 173.08 143.82 172.98 147.00 C 172.94 156.66 173.18 166.33 172.84 175.99 C 167.73 177.54 162.13 177.53 157.02 175.95 C 156.29 163.99 156.90 151.98 156.71 140.00 C 156.85 132.35 156.35 124.68 157.02 117.05 C 161.41 115.59 166.28 115.39 170.62 117.10 C 170.69 119.41 170.81 121.72 170.93 124.03 C 175.27 120.51 179.68 116.58 185.33 115.45 Z" />
<path fill="#006bcd" opacity="1.00" d=" M 235.00 120.02 C 242.23 114.64 251.85 114.16 260.44 115.61 C 267.98 117.02 274.68 122.43 277.27 129.71 C 279.32 135.47 279.99 141.82 279.07 147.86 C 278.76 149.80 276.92 151.06 275.02 150.93 C 263.32 151.21 251.60 150.78 239.90 151.10 C 240.12 156.46 242.10 162.46 247.58 164.53 C 254.61 166.96 262.49 165.81 269.39 163.38 C 271.53 162.64 273.75 162.18 275.98 161.78 C 276.82 165.56 277.64 170.06 275.56 173.54 C 268.48 177.54 259.96 178.10 251.98 178.03 C 243.66 178.04 234.64 175.42 229.40 168.56 C 224.04 161.66 223.30 152.47 223.65 144.05 C 224.01 135.00 227.48 125.51 235.00 120.02 M 247.25 127.20 C 242.15 129.69 240.35 135.64 239.92 140.90 C 247.92 141.04 255.93 141.17 263.93 140.81 C 263.60 136.89 263.21 132.60 260.46 129.53 C 257.30 125.75 251.54 125.40 247.25 127.20 Z" />
<path fill="#006bcd" opacity="1.00" d=" M 306.98 124.15 C 310.68 120.43 314.22 115.39 319.93 115.02 C 322.93 114.99 326.82 114.63 328.93 117.20 C 329.94 121.79 329.43 126.55 328.83 131.17 C 324.57 131.34 319.66 128.74 315.99 131.93 C 312.71 134.76 308.62 138.14 308.98 142.93 C 308.89 153.95 309.22 164.97 308.85 175.99 C 303.73 177.53 298.13 177.53 293.03 175.96 C 292.29 163.99 292.90 151.98 292.71 140.00 C 292.85 132.35 292.35 124.68 293.03 117.05 C 297.40 115.59 302.27 115.40 306.62 117.09 C 306.69 119.45 306.83 121.80 306.98 124.15 Z" />
<path fill="#006bcd" opacity="1.00" d=" M 344.07 118.13 C 350.82 114.30 358.92 114.59 366.36 115.59 C 373.36 116.60 380.47 115.33 387.45 116.50 C 388.37 120.12 388.41 123.86 387.44 127.47 C 384.95 127.81 382.45 128.02 379.95 128.18 C 383.56 135.98 381.55 146.30 374.46 151.46 C 367.19 156.73 357.23 157.20 348.93 154.27 C 346.85 156.56 346.38 160.98 349.90 162.15 C 360.04 164.66 371.63 161.02 380.89 167.12 C 389.39 172.46 389.28 185.75 382.33 192.33 C 375.90 198.43 366.58 200.18 358.00 200.05 C 350.23 200.00 341.73 199.56 335.27 194.74 C 331.07 191.66 329.77 185.92 331.02 181.04 C 331.83 176.87 335.05 173.85 337.91 170.96 C 335.46 168.14 332.75 164.98 333.05 160.97 C 332.81 156.22 335.87 152.33 338.69 148.84 C 336.47 145.23 334.19 141.39 334.27 137.00 C 333.64 129.53 337.44 121.78 344.07 118.13 M 354.42 126.59 C 347.57 128.87 346.45 139.66 352.42 143.52 C 355.13 145.15 358.57 145.04 361.56 144.39 C 367.98 142.27 369.41 132.80 364.58 128.39 C 361.93 125.78 357.81 125.87 354.42 126.59 M 351.36 175.50 C 347.37 177.04 343.91 183.73 348.38 186.64 C 352.37 189.23 357.43 188.87 361.98 188.64 C 366.10 188.30 371.20 185.79 371.14 181.02 C 371.34 177.52 367.52 175.86 364.59 175.57 C 360.20 175.19 355.74 174.99 351.36 175.50 Z" />
<path fill="#006bcd" opacity="1.00" d=" M 475.01 124.03 C 479.50 120.40 484.10 116.31 489.99 115.29 C 496.16 114.37 503.02 114.90 508.11 118.87 C 514.89 124.00 517.37 132.82 517.89 140.94 C 518.57 151.19 517.54 162.49 510.73 170.69 C 505.24 177.36 495.70 179.34 487.56 177.38 C 483.53 176.24 480.34 173.39 477.06 170.93 C 476.79 180.26 477.30 189.60 476.79 198.92 C 471.72 200.50 466.16 200.55 461.10 198.89 C 460.60 194.61 460.62 190.30 460.70 186.00 C 460.72 164.32 460.69 142.63 460.71 120.95 C 460.91 119.38 460.47 117.08 462.41 116.46 C 465.99 115.69 469.85 115.63 473.39 116.63 C 475.45 118.38 474.46 121.64 475.01 124.03 M 487.39 129.53 C 483.29 130.85 479.83 133.89 477.37 137.35 C 476.67 143.41 476.80 149.64 477.28 155.72 C 480.76 160.40 486.32 165.29 492.62 163.47 C 498.52 161.46 500.65 154.66 501.16 149.04 C 501.49 143.00 500.96 136.07 496.52 131.49 C 494.22 128.98 490.49 128.85 487.39 129.53 Z" />
<path fill="#006bcd" opacity="1.00" d=" M 633.35 121.35 C 637.38 117.18 643.26 115.37 648.93 115.03 C 655.17 114.81 662.03 115.00 667.38 118.61 C 669.92 121.88 668.60 126.52 668.05 130.29 C 662.74 128.77 657.64 125.95 651.98 126.17 C 649.88 126.22 647.51 126.42 646.01 128.06 C 643.88 130.10 643.44 134.09 646.09 135.91 C 651.40 139.83 658.31 140.57 663.82 144.17 C 667.71 146.43 670.35 150.28 672.00 154.39 L 672.00 163.48 C 669.72 169.26 665.42 174.45 659.30 176.29 C 650.39 179.07 640.01 178.95 631.76 174.25 C 627.15 171.45 628.65 165.24 629.14 160.82 C 635.23 162.04 640.56 166.20 646.99 165.82 C 650.53 165.99 655.04 164.76 655.95 160.82 C 656.80 157.84 654.07 155.52 651.68 154.37 C 645.87 151.50 639.16 150.20 634.17 145.84 C 627.12 139.84 627.01 127.90 633.35 121.35 Z" />
<path fill="#006bcd" opacity="1.00" d=" M 91.33 116.42 C 95.17 115.69 99.14 115.84 103.02 116.15 C 105.64 115.97 106.23 119.01 107.07 120.87 C 111.15 132.96 115.66 144.90 119.65 157.02 C 121.84 152.70 122.84 147.94 124.38 143.38 C 126.89 135.82 129.15 128.18 131.58 120.59 C 132.26 118.84 132.74 116.24 135.11 116.22 C 138.84 115.81 142.76 115.58 146.41 116.59 C 148.99 117.38 148.17 120.69 147.59 122.62 C 139.22 146.93 130.95 171.29 122.61 195.61 C 122.07 197.53 120.77 199.29 118.64 199.51 C 113.83 200.26 108.65 200.66 104.04 198.78 C 105.17 191.39 109.55 185.03 111.44 177.86 C 105.18 163.97 100.39 149.37 94.84 135.15 C 93.13 130.28 90.95 125.56 89.53 120.59 C 88.92 119.04 89.53 116.78 91.33 116.42 Z" />
<path fill="#006bcd" opacity="1.00" d=" M 393.61 116.65 C 396.99 115.65 400.60 115.93 404.09 115.99 C 405.59 116.24 407.74 115.77 408.52 117.48 C 410.19 120.40 411.00 123.71 412.13 126.86 C 415.62 136.92 419.33 146.91 422.65 157.03 C 424.83 152.71 425.84 147.94 427.38 143.39 C 429.89 135.82 432.15 128.18 434.58 120.59 C 435.26 118.84 435.74 116.24 438.11 116.21 C 441.84 115.81 445.75 115.58 449.41 116.59 C 452.26 117.57 450.98 121.28 450.36 123.40 C 441.90 147.67 433.77 172.06 425.32 196.32 C 424.75 198.77 422.23 199.62 420.01 199.80 C 415.68 200.18 411.13 200.53 407.04 198.78 C 408.16 191.60 412.27 185.37 414.31 178.47 C 414.74 177.41 413.90 176.44 413.54 175.53 C 411.01 171.03 409.57 166.07 407.70 161.29 C 402.97 148.98 398.46 136.59 393.71 124.29 C 392.98 121.91 391.09 118.62 393.61 116.65 Z" />
<path fill="#006bcd" opacity="1.00" d=" M 561.79 116.96 C 566.94 115.49 572.57 115.45 577.68 117.13 C 577.82 128.76 577.56 140.39 577.76 152.01 C 577.78 156.56 579.50 162.15 584.40 163.51 C 590.67 165.16 595.98 160.10 599.47 155.54 C 600.19 142.73 599.26 129.83 599.90 117.00 C 605.00 115.45 610.62 115.45 615.70 117.11 C 615.72 136.70 615.71 156.30 615.70 175.90 C 611.79 177.33 607.46 177.45 603.43 176.53 C 600.98 174.99 602.42 171.30 601.85 168.85 C 596.78 173.20 591.12 177.85 584.09 178.00 C 577.42 178.70 570.03 176.69 566.02 170.98 C 561.15 164.39 561.54 155.78 561.58 148.00 C 561.73 137.65 561.32 127.30 561.79 116.96 Z" />
</g>
</svg>
